<?xml version="1.0" encoding="utf-8"?>
<!-- Generator: Adobe Illustrator 23.0.3, SVG Export Plug-In . SVG Version: 6.00 Build 0)  -->
<svg version="1.1" id="Ebene_1" xmlns="http://www.w3.org/2000/svg" xmlns:xlink="http://www.w3.org/1999/xlink" x="0px" y="0px"
	 viewBox="0 0 150 150" style="enable-background:new 0 0 150 150;" xml:space="preserve">
<style type="text/css">
	.st0{fill:none;stroke:#000000;stroke-width:6;stroke-linecap:round;stroke-miterlimit:10;}
</style>
<g>
	<path d="M88,45.32v59.37c0,4.58-5.25,7.16-8.88,4.37L64.77,98.01c-0.96-0.74-2.15-1.14-3.36-1.14H28.06
		c-3.05,0-5.51-2.47-5.51-5.51V58.65c0-3.05,2.47-5.51,5.51-5.51h33.34c1.22,0,2.4-0.4,3.36-1.14l14.36-11.04
		C82.75,38.16,88,40.74,88,45.32z"/>
</g>
<path class="st0" d="M100.28,41.63c0,0,10.86,15.52,10.86,33.37c0,20.18-10.86,33.37-10.86,33.37"/>
<path class="st0" d="M111.15,28c0,0,15.3,21.86,15.3,47c0,28.42-15.3,47-15.3,47"/>
</svg>
